# xmcd
#
# Track frame offsets:
#	150
#	13277
#	28590
#	38801
#	53588
#	64382
#	76370
#	93132
#	110794
#	123542
#	134527
#	148166
#
# Disc length: 2151 seconds
#
# Revision: 1
# Processed by: cddbd v1.5.2PL0 Copyright (c) Steve Scherf et al.
# Submitted via: audiograbber 1.83.01
#
DISCID=ac08650c
DTITLE=Kris Kristofferson - The Complete Monument and Columbia Albums Collection 
DTITLE=(CD 13) - Live At RCA Studios 1972 [remastered 2016]
DYEAR=2016
DGENRE=Singer/Songwriter
TTITLE0=Duvalier's Dream [live]
TTITLE1=When I Loved Her [live]
TTITLE2=Jesus Was A Capricorn (Owed To John Prine) [live]
TTITLE3=Same Old Song [live]
TTITLE4=Band Introductions [live]
TTITLE5=Smile At Me Again [live]
TTITLE6=Loving Her Was Easier (Than Anything I'll Ever Do Again) [live]
TTITLE7=Casey's Last Ride [live]
TTITLE8=Billy Dee [live]
TTITLE9=The Law Is For Protection Of The People [live]
TTITLE10=Sunday Mornin' Comin' Down [live]
TTITLE11=Help Me Make It Through The Night [live with Rita Coolidge]
EXTD=
EXTT0=
EXTT1=
EXTT2=
EXTT3=
EXTT4=
EXTT5=
EXTT6=
EXTT7=
EXTT8=
EXTT9=
EXTT10=
EXTT11=
PLAYORDER=
